<?xml version="1.0" standalone="no"?>
<!DOCTYPE svg PUBLIC "-//W3C//DTD SVG 20010904//EN"
 "http://www.w3.org/TR/2001/REC-SVG-20010904/DTD/svg10.dtd">
<svg version="1.0" xmlns="http://www.w3.org/2000/svg"
 width="700.000000pt" height="700.000000pt" viewBox="0 0 700.000000 700.000000"
 preserveAspectRatio="xMidYMid meet">
<metadata>
Created by potrace 1.11, written by Peter Selinger 2001-2013
</metadata>
<g transform="translate(0.000000,700.000000) scale(0.100000,-0.100000)"
fill="#000000" stroke="none">
<path d="M3180 6989 c-432 -37 -787 -134 -1155 -314 -488 -239 -962 -616
-1295 -1031 -386 -480 -615 -1014 -707 -1649 -25 -174 -25 -630 0 -810 56
-394 149 -699 322 -1050 105 -215 154 -296 332 -548 109 -153 129 -176 147
-171 11 4 207 181 435 393 228 212 552 514 720 670 168 156 321 301 339 324
24 30 32 49 32 81 0 97 -55 110 -203 46 -214 -91 -390 -99 -538 -24 -252 127
-425 348 -496 632 -13 51 -17 111 -17 252 0 159 4 204 27 321 108 553 369 986
806 1337 446 359 891 521 1506 547 225 10 317 39 418 133 69 65 112 136 147
243 37 111 38 173 6 267 -58 173 -202 305 -377 347 -70 16 -283 18 -449 4z"/>
<path d="M5370 6113 c-112 -8 -337 -46 -465 -77 -205 -51 -357 -107 -560 -206
-336 -164 -616 -376 -866 -655 -61 -69 -121 -128 -132 -132 -12 -4 -110 -7
-217 -8 -172 -2 -208 -5 -301 -28 -420 -101 -727 -348 -908 -728 -28 -57 -62
-146 -77 -197 -47 -164 -23 -263 73 -305 21 -9 207 -50 413 -91 206 -42 400
-83 430 -92 52 -15 72 -33 452 -416 219 -220 405 -413 414 -430 8 -16 51 -211
95 -431 44 -221 84 -415 91 -432 17 -46 56 -93 90 -111 102 -53 437 65 657
231 202 152 373 389 451 625 52 156 62 225 66 445 2 116 3 214 4 218 0 5 28
34 62 65 350 316 571 604 743 965 109 230 183 463 229 717 42 235 50 347 51
655 0 287 0 290 -23 330 -54 90 -72 94 -427 92 -165 0 -320 -2 -345 -4z m406
-374 c3 -6 6 -91 6 -189 -1 -384 -69 -676 -241 -1035 -249 -519 -606 -897
-1106 -1169 -135 -73 -555 -256 -589 -256 -15 0 -121 100 -361 340 -187 187
-346 353 -354 369 -13 28 -11 38 39 163 192 484 365 766 639 1038 304 303 625
500 1021 628 177 57 361 93 600 115 93 9 339 6 346 -4z m-2710 -1107 c-3 -5
-56 -125 -119 -268 -148 -335 -156 -350 -184 -365 -26 -14 -95 -4 -371 54
-176 37 -170 29 -106 145 137 245 448 439 712 441 40 1 71 -3 68 -7z m1621
-1684 c-10 -136 -64 -280 -160 -423 -61 -91 -201 -223 -288 -272 -120 -67
-113 -70 -138 48 -36 170 -71 369 -71 403 0 41 3 43 110 89 47 20 186 81 310
136 124 55 229 100 234 100 5 1 6 -35 3 -81z"/>
<path d="M4396 5024 c-237 -57 -426 -293 -426 -534 0 -112 46 -244 116 -336
223 -294 676 -279 888 29 146 211 119 503 -64 688 -79 80 -153 123 -256 149
-89 23 -174 24 -258 4z m214 -393 c42 -22 77 -70 86 -118 13 -67 -32 -155 -97
-188 -32 -17 -105 -20 -142 -6 -37 14 -85 68 -98 111 -42 140 121 271 251 201z"/>
<path d="M6455 3870 c-227 -27 -404 -165 -459 -360 -8 -30 -27 -145 -40 -255
-46 -371 -110 -605 -236 -860 -305 -621 -873 -1091 -1502 -1245 -198 -49 -335
-63 -553 -57 -201 5 -262 15 -384 64 -238 94 -468 353 -516 581 -28 132 -12
240 61 406 57 129 64 168 33 190 -37 25 -80 19 -165 -24 -74 -37 -114 -74
-619 -565 -473 -459 -805 -796 -805 -816 0 -9 182 -168 260 -227 685 -516
1468 -755 2266 -692 272 22 571 80 800 156 513 170 1050 525 1437 949 433 475
724 1004 842 1530 61 275 105 704 84 821 -36 197 -222 384 -404 406 -22 3 -67
2 -100 -2z"/>
</g>
</svg>
